<?xml version="1.0" encoding="UTF-8"?>
<svg version="1.1" xmlns="http://www.w3.org/2000/svg" width="500" height="500">
<path d="M0,0 L500,0 L500,500 L0,500 Z " fill="#102233" transform="translate(0,0)"/>
<path d="M0,0 L26,0 L38,6 L43,11 L48,21 L48,28 L54,30 L88,46 L127,65 L155,78 L154,80 L144,83 L135,82 L117,74 L77,55 L49,42 L37,36 L31,34 L23,34 L17,38 L13,44 L13,49 L18,55 L37,68 L53,81 L65,93 L71,104 L74,111 L76,119 L76,137 L72,154 L63,171 L52,183 L44,190 L34,196 L19,202 L0,208 L-19,213 L-35,219 L-51,228 L-62,237 L-70,246 L-77,257 L-83,270 L-85,273 L-85,255 L-82,245 L-76,234 L-67,224 L-60,217 L-46,208 L-27,199 L-7,190 L5,183 L15,175 L24,167 L34,154 L40,142 L43,130 L43,116 L39,105 L32,94 L21,84 L2,70 L-7,60 L-12,48 L-12,39 L-7,29 L-4,25 L-16,31 L-21,37 L-24,45 L-25,51 L-28,48 L-30,42 L-30,31 L-24,21 L-19,16 L-31,16 L-39,12 L-43,6 L-27,6 Z " fill="#F2F4F7" transform="translate(243,69)"/>
<path d="M0,0 L16,0 L25,4 L33,11 L37,19 L37,30 L34,40 L30,48 L20,61 L9,71 L-4,79 L-20,87 L-44,97 L-57,105 L-66,112 L-76,122 L-85,136 L-88,141 L-89,141 L-89,124 L-86,112 L-79,98 L-71,88 L-63,81 L-50,73 L-32,65 L-12,57 L2,49 L8,44 L15,33 L11,35 L2,41 L-20,49 L-36,54 L-51,60 L-66,68 L-75,75 L-81,80 L-91,94 L-98,108 L-100,114 L-101,114 L-101,96 L-97,80 L-89,64 L-82,54 L-73,44 L-62,33 L-47,22 L-32,13 L-16,5 Z " fill="#47B9E5" transform="translate(238,168)"/>
<path d="M0,0 L5,1 L7,4 L6,8 L-2,9 L4,16 L5,18 L5,28 L1,36 L-5,40 L-12,42 L-13,44 L-1,47 L4,51 L4,59 L0,64 L-4,66 L-10,67 L-20,67 L-30,64 L-36,60 L-39,56 L-38,51 L-28,45 L-23,46 L-22,50 L-22,59 L-20,61 L-11,61 L-11,51 L-16,46 L-32,38 L-38,31 L-39,28 L-39,18 L-35,12 L-29,7 L-23,5 L-6,5 L-1,2 Z " fill="#8CC3D9" transform="translate(270,387)"/>
<path d="M0,0 L30,0 L39,4 L44,12 L44,22 L39,32 L32,36 L30,37 L19,37 L9,32 L5,30 L8,37 L17,44 L21,50 L21,56 L18,60 L0,60 L1,56 L1,3 Z " fill="#DAEAF1" transform="translate(117,375)"/>
<path d="M0,0 L7,0 L13,5 L14,7 L15,39 L16,43 L-3,43 L-3,13 L-7,12 L-9,14 L-9,43 L-28,43 L-27,39 L-27,4 L-28,1 L-12,1 L-10,3 L-9,7 L-2,1 Z " fill="#70B6D1" transform="translate(327,392)"/>
<path d="M0,0 L20,0 L19,2 L19,30 L23,31 L25,31 L25,0 L44,0 L43,3 L43,38 L44,42 L28,42 L27,41 L27,35 L18,42 L16,43 L9,43 L4,39 L2,34 L1,3 Z " fill="#ACD4E4" transform="translate(184,393)"/>
<path d="M0,0 L12,0 L23,3 L26,6 L25,12 L23,15 L17,15 L11,11 L3,5 L-4,5 L-4,10 L14,15 L22,19 L26,25 L26,34 L20,41 L13,44 L-1,44 L-12,40 L-11,33 L-7,27 L-1,29 L8,34 L18,34 L22,32 L23,28 L2,28 L-6,25 L-12,18 L-12,9 L-9,4 Z " fill="#5BAAC9" transform="translate(357,392)"/>
<path d="M0,0 L5,0 L6,58 L7,61 L-9,61 L-11,59 L-12,10 L-14,7 Z " fill="#C4E1EC" transform="translate(176,374)"/>
<path d="M0,0 L6,2 L43,20 L71,33 L87,40 L85,42 L80,43 L60,43 L48,39 L36,32 L17,18 L-1,5 L-3,2 Z " fill="#56C4E9" transform="translate(271,113)"/>
<path d="M0,0 L5,1 L6,43 L-13,43 L-12,39 L-12,10 L-14,7 Z " fill="#7EBCD4" transform="translate(291,392)"/>
<path d="M0,0 L16,0 L25,4 L33,11 L37,19 L37,30 L35,37 L34,37 L33,23 L29,14 L25,9 L20,6 L16,5 L1,5 L-14,10 L-35,20 L-50,30 L-60,38 L-70,47 L-80,58 L-90,72 L-93,73 L-91,67 L-83,55 L-72,43 L-62,33 L-47,22 L-32,13 L-16,5 Z " fill="#DEEDF1" transform="translate(238,168)"/>
<path d="M0,0 L24,0 L30,3 L31,7 L28,10 L25,11 L0,11 L-5,8 L-5,3 Z " fill="#122536" transform="translate(127,388)"/>
<path d="M0,0 L5,1 L8,7 L8,26 L4,33 L-1,32 L-4,25 L-4,6 Z " fill="#112536" transform="translate(251,395)"/>
<path d="M0,0 L9,0 L13,4 L13,12 L10,16 L1,17 L-4,12 L-4,4 Z " fill="#91C6DC" transform="translate(283,372)"/>
<path d="M0,0 L6,1 L27,2 L26,7 L22,9 L12,9 L-1,2 Z " fill="#142C3F" transform="translate(353,418)"/>
<path d="M0,0 L7,0 L16,7 L21,10 L26,11 L23,13 L7,9 L0,7 L-1,6 L-1,1 Z " fill="#13293B" transform="translate(353,396)"/>
<path d="M0,0 L6,0 L9,3 L9,10 L5,13 L0,12 L-3,8 L-2,2 Z " fill="#182B3B" transform="translate(266,84)"/>
<path d="M0,0 L2,1 L-4,11 L-5,8 L-2,1 Z " fill="#94CEDA" transform="translate(146,240)"/>
</svg>
